<svg xmlns="http://www.w3.org/2000/svg" viewBox="0 0 509.23 524.57"><defs><style>.cls-1{fill:#262626;}.cls-2{fill:#1e1e1e;}.cls-3{fill:#ccc;}.cls-4{fill:#e6e6e6;}.cls-5{fill:#3b82f6;}</style></defs><title>hero_2</title><g id="Layer_2" data-name="Layer 2"><g id="Layer_1-2" data-name="Layer 1"><path class="cls-1" d="M311.66,320.57H163.37a20.14,20.14,0,0,1-20.11-20.12V91.85A92,92,0,0,1,235.11,0h76.55a20.13,20.13,0,0,1,20.11,20.11V300.45A20.14,20.14,0,0,1,311.66,320.57Z"/><path class="cls-2" d="M168.56,181.28a8.48,8.48,0,0,0-8.47,8.48v47.61a8.47,8.47,0,0,0,8.47,8.47h144.1a8.47,8.47,0,0,0,8.47-8.47V189.76a8.48,8.48,0,0,0-8.47-8.48Z"/><path class="cls-2" d="M313,150.39H168.91a9.17,9.17,0,0,1-9.17-9.16,56.84,56.84,0,0,1,56.78-56.78H313a9.16,9.16,0,0,1,9.16,9.16v47.62A9.16,9.16,0,0,1,313,150.39Z"/><path class="cls-1" d="M375.05,238.54H209.17a3.69,3.69,0,0,1-3.68-3.68V191.15a3.69,3.69,0,0,1,3.68-3.68H375.05a3.69,3.69,0,0,1,3.68,3.68v43.71A3.69,3.69,0,0,1,375.05,238.54Z"/><path class="cls-3" d="M375.05,239.23H209.17a4.38,4.38,0,0,1-4.38-4.37V191.15a4.38,4.38,0,0,1,4.38-4.37H375.05a4.37,4.37,0,0,1,4.37,4.37v43.71A4.37,4.37,0,0,1,375.05,239.23ZM209.17,188.17a3,3,0,0,0-3,3v43.71a3,3,0,0,0,3,3H375.05a3,3,0,0,0,3-3V191.15a3,3,0,0,0-3-3Z"/><circle class="cls-4" cx="223.27" cy="202.22" r="5.97"/><path class="cls-4" d="M365.13,217.26h-146a1.78,1.78,0,0,1,0-3.55H365.13a1.78,1.78,0,1,1,0,3.55Z"/><path class="cls-4" d="M350.62,224.28H219.08a1.78,1.78,0,1,1,0-3.55H350.62a1.78,1.78,0,1,1,0,3.55Z"/><path class="cls-1" d="M202.71,523.61l-40.6-16.18a3.69,3.69,0,0,1-2.05-4.78l61.42-154.1a3.68,3.68,0,0,1,4.78-2.05l40.6,16.18a3.69,3.69,0,0,1,2.05,4.78l-61.42,154.1A3.68,3.68,0,0,1,202.71,523.61Z"/><path class="cls-3" d="M202.46,524.26l-40.6-16.19a4.37,4.37,0,0,1-2.45-5.68L220.83,348.3a4.37,4.37,0,0,1,5.68-2.44L267.11,362a4.37,4.37,0,0,1,2.45,5.68L208.14,521.81A4.38,4.38,0,0,1,202.46,524.26ZM160.7,502.91a3,3,0,0,0,1.67,3.87L203,523a3,3,0,0,0,3.88-1.67l61.42-154.1a3,3,0,0,0-1.67-3.87L226,347.15a3,3,0,0,0-3.88,1.66Z"/><circle class="cls-4" cx="229.96" cy="367.12" r="5.97"/><path class="cls-4" d="M189.09,505.46a1.78,1.78,0,0,1-1-2.31l54.08-135.67a1.77,1.77,0,1,1,3.3,1.3h0L191.4,504.47A1.78,1.78,0,0,1,189.09,505.46Z"/><path class="cls-4" d="M201,494.58a1.77,1.77,0,0,1-1-2.31l48.7-122.19a1.78,1.78,0,0,1,3.31,1.3h0l-48.7,122.2A1.78,1.78,0,0,1,201,494.58Z"/><circle class="cls-2" cx="302.65" cy="25.53" r="15.71"/><path class="cls-1" d="M310.38,24.91h-7.06V17.84a.67.67,0,0,0-.67-.67.66.66,0,0,0-.67.66h0v7.07h-7.07a.67.67,0,0,0-.67.67.66.66,0,0,0,.67.66H302v7.07a.66.66,0,0,0,.66.67.67.67,0,0,0,.68-.66h0V26.24h7.06a.66.66,0,0,0,.67-.66.67.67,0,0,0-.67-.67Z"/><path class="cls-1" d="M496.23,38.47h-53a13,13,0,0,1,0-26h53a13,13,0,1,1,0,26Z"/><rect class="cls-5" x="365.33" y="-29.36" width="2" height="102.43" transform="translate(339.18 387.83) rotate(-89.17)"/><path class="cls-5" d="M310.84,26.54A5,5,0,1,1,313,26,5,5,0,0,1,310.84,26.54Zm0-8a3,3,0,1,0,2.7,1.69h0a3,3,0,0,0-2.7-1.69Z"/><path class="cls-1" d="M4,55.47a13,13,0,0,1,13-13H70a13,13,0,0,1,0,26H17A13,13,0,0,1,4,55.47Z"/><rect class="cls-5" x="95.68" y="50.86" width="102.43" height="2" transform="translate(-0.73 2.13) rotate(-0.83)"/><path class="cls-5" d="M200.2,56a5,5,0,1,1,2.19.5A5,5,0,0,1,200.2,56Zm1.22-7.34a3,3,0,0,0-1.72,1.53h0a3,3,0,1,0,1.72-1.53Z"/><path class="cls-1" d="M0,448.47a13,13,0,0,1,13-13H66a13,13,0,0,1,0,26H13A13,13,0,0,1,0,448.47Z"/><rect class="cls-5" x="91.68" y="443.86" width="102.43" height="2" transform="translate(-6.41 2.11) rotate(-0.83)"/><path class="cls-5" d="M196.2,449a5,5,0,1,1,2.19.5A5,5,0,0,1,196.2,449Zm1.22-7.34a3,3,0,0,0-1.72,1.53h0a3,3,0,1,0,4-1.38A3,3,0,0,0,197.42,441.7Z"/><path class="cls-1" d="M14,200.47a13,13,0,0,1,13-13H80a13,13,0,1,1,0,26H27A13,13,0,0,1,14,200.47Z"/><rect class="cls-5" x="105.68" y="195.86" width="102.43" height="2" transform="translate(-2.83 2.29) rotate(-0.83)"/><path class="cls-5" d="M210.2,201a5,5,0,1,1,2.19.5A5,5,0,0,1,210.2,201Zm1.22-7.34a3,3,0,0,0-1.72,1.53h0a3,3,0,1,0,1.72-1.53Z"/><path class="cls-1" d="M482.23,121.47h-53a13,13,0,0,1,0-26h53a13,13,0,0,1,0,26Z"/><rect class="cls-5" x="351.33" y="53.64" width="2" height="102.43" transform="translate(242.39 455.64) rotate(-89.17)"/><path class="cls-5" d="M296.84,109.54A5,5,0,1,1,299,109,5,5,0,0,1,296.84,109.54Zm0-8a3,3,0,1,0,2.7,1.69h0a3,3,0,0,0-2.7-1.69Z"/></g></g></svg>