<svg xmlns="http://www.w3.org/2000/svg" viewBox="0 0 3000 3000" width="3000" height="3000"><g transform="translate(2070.0 1592.3999999999999) rotate(10.314244106755504 370.20000000000005 376.80000000000007) scale(1.5238110918793877 1.5163984731380558)"><svg width="485.887" height="496.967" viewBox="0 0 485.887 496.967"><path d="M484.684 470.452 424.355 44.66a19.418 19.418 0 0 0-1.563-5.388l-12.198-26.643a19.418 19.418 0 0 1 1.563 5.388l60.329 425.792c2.274 16.023-14.958 29.576-31.016 24.392L14.936 330.522c-5.896-1.903-10.009-5.811-12.17-10.531l12.198 26.643c2.161 4.72 6.274 8.628 12.17 10.531l426.533 137.679c16.059 5.183 33.291-8.369 31.016-24.392z" fill="#3658c1"/><path d="M460.86 496.976c-2.518 0-5.043-.388-7.5-1.181L26.827 358.116c-5.831-1.882-10.366-5.812-12.772-11.066L1.857 320.406a1 1 0 0 1 1.819-.833c2.169 4.738 6.278 8.288 11.568 9.996l426.534 137.679c7.527 2.431 15.783.716 22.082-4.586 5.757-4.847 8.611-11.842 7.637-18.713L411.166 18.156a18.437 18.437 0 0 0-1.47-5.087l-.012-.025a1.002 1.002 0 0 1 .493-1.326.998.998 0 0 1 1.325.493l12.197 26.644a20.46 20.46 0 0 1 1.645 5.665l60.33 425.791c1.072 7.559-2.041 15.231-8.329 20.525-4.781 4.025-10.609 6.141-16.485 6.141zM7.302 327.495l8.572 18.722c2.169 4.738 6.278 8.288 11.568 9.996l426.534 137.679c7.526 2.43 15.783.716 22.082-4.586 5.757-4.847 8.611-11.843 7.637-18.714L423.365 44.8a18.473 18.473 0 0 0-1.482-5.112l-8.175-17.857 59.77 421.838c1.072 7.558-2.042 15.23-8.329 20.524-6.83 5.749-15.793 7.603-23.985 4.959L14.63 331.473c-2.763-.892-5.235-2.244-7.328-3.978z" fill="#111"/><path d="M472.486 443.808c2.274 16.023-14.958 29.576-31.016 24.392L14.936 330.522c-16.047-5.18-18.889-25.212-5.104-36.051L376.035 6.356c6.893-5.421 15.357-6.51 22.382-4.243 7.024 2.267 12.609 7.892 13.74 15.902l60.329 425.792z" fill="#fff"/><path d="M448.662 470.333c-2.518 0-5.043-.388-7.5-1.181L14.63 331.473c-7.606-2.455-12.953-8.425-14.303-15.969-1.457-8.141 1.865-16.298 8.887-21.82L375.417 5.57c6.734-5.295 15.444-6.945 23.308-4.408 7.913 2.555 13.305 8.803 14.422 16.714l60.33 425.792c1.072 7.558-2.041 15.23-8.328 20.524-4.781 4.025-10.61 6.142-16.486 6.142zM391.274 1.993c-5.164 0-10.325 1.771-14.62 5.149L10.45 295.256c-6.431 5.057-9.479 12.495-8.155 19.896 1.218 6.804 6.058 12.194 12.948 14.418l426.534 137.679c7.527 2.43 15.784.716 22.083-4.587 5.757-4.847 8.611-11.842 7.636-18.713s-60.33-425.793-60.33-425.793c-1.007-7.136-5.888-12.777-13.057-15.091a22.237 22.237 0 0 0-6.836-1.072z" fill="#111"/><path d="m372.08 124.481-73.498 160.776-38.094-12.296 65.737-163.281z" fill="#3658c1"/><path d="M298.582 286.257c-.102 0-.205-.016-.308-.048l-38.094-12.296a.998.998 0 0 1-.62-1.325l65.736-163.281a.998.998 0 0 1 1.235-.578l45.854 14.801a1 1 0 0 1 .601 1.367l-73.497 160.776a1 1 0 0 1-.909.584zm-36.766-13.918 36.226 11.693 72.66-158.944-43.897-14.17-64.988 161.421z" fill="#111"/><path d="m281.578 323.673-15.773 36.81-38.093-12.296 15.772-36.81z" fill="#3658c1"/><path d="M265.806 361.483c-.102 0-.205-.016-.308-.048l-38.094-12.296a1 1 0 0 1-.612-1.346l15.771-36.811a.998.998 0 0 1 1.227-.558l38.094 12.296a1 1 0 0 1 .612 1.346l-15.771 36.811a1 1 0 0 1-.919.606zm-36.742-13.911 36.182 11.679 14.98-34.964-36.182-11.679z" fill="#111"/></svg></g><g transform="translate(506.4 758.4) rotate(0.0 1032.6 780.5999999999999) scale(1.204204570169756 1.204690979633222)"><svg width="1714.991" height="1295.934" viewBox="0 0 1714.991 1295.934"><linearGradient id="a" gradientUnits="userSpaceOnUse" x1="730.151" x2="1037.889" y1="1178.13" y2="80.929"><stop offset="0" stop-color="#111"/><stop offset=".46" stop-color="#3658c1"/><stop offset=".716" stop-color="#3658c1"/><stop offset="1" stop-color="#b0c3ff"/></linearGradient><path d="m1690.226 229.26-23.1-20.381c20.647 18.214 29.355 48.673 20.044 80.717l-264.815 911.394c-13.616 46.862-60.627 79.421-105.066 72.68L60.461 1083.03a69.012 69.012 0 0 1-35.677-16.353l23.1 20.38a69 69 0 0 0 35.677 16.353l1256.829 190.64c44.439 6.741 91.45-25.818 105.067-72.68l264.813-911.393c9.311-32.044.603-62.504-20.044-80.717z" fill="url(#a)"/><path d="M1352.119 1295.928a79.1 79.1 0 0 1-11.878-.889L83.413 1104.4a70.408 70.408 0 0 1-36.189-16.592l-23.1-20.381a1 1 0 0 1 1.323-1.5 68.406 68.406 0 0 0 35.166 16.114l1256.828 190.641c43.856 6.65 90.494-25.633 103.957-71.971l264.812-911.394c8.884-30.572 1.317-61.107-19.745-79.688a1 1 0 1 1 1.322-1.5l23.1 20.38c21.65 19.1 29.445 50.421 20.343 81.746l-264.811 911.393c-12.519 43.103-53.241 74.278-94.3 74.28zM37.646 1076.69l10.9 9.617a68.419 68.419 0 0 0 35.166 16.115l1256.829 190.64c43.849 6.651 90.492-25.633 103.957-71.971L1709.31 309.7c8.883-30.573 1.317-61.108-19.746-79.688l-10.807-9.534c13.059 18.852 16.715 44.125 9.37 69.4l-264.812 911.394c-12.523 43.1-53.241 74.277-94.3 74.279a79.081 79.081 0 0 1-11.876-.889L60.311 1084.019a72.579 72.579 0 0 1-22.665-7.329z" fill="#111"/><path d="M1631.424 192.522c44.439 6.741 69.359 50.212 55.743 97.074l-264.811 911.394c-13.617 46.862-60.628 79.421-105.067 72.68L60.46 1083.03c-44.392-6.73-69.36-50.211-55.743-97.073L269.528 74.564C283.144 27.7 330.2-4.852 374.6 1.882z" fill="#b0c3ff"/><path d="M1329.015 1275.548a79.213 79.213 0 0 1-11.876-.889L60.31 1084.019c-20.506-3.111-37.768-14.159-48.6-31.111-12.01-18.787-14.91-43.291-7.953-67.23L268.568 74.285C282.3 27.019 329.937-5.9 374.745.893l1256.828 190.64c20.52 3.113 37.784 14.158 48.614 31.1 12.005 18.781 14.9 43.29 7.94 67.24l-264.812 911.393c-12.523 43.105-53.241 74.282-94.3 74.282zM362.842 2c-40.2 0-80.072 30.573-92.353 72.841L5.677 986.236c-6.795 23.385-3.983 47.294 7.715 65.595 10.52 16.459 27.29 27.187 47.218 30.21l1256.829 190.641c43.852 6.65 90.492-25.634 103.956-71.972l264.812-911.392c6.8-23.4 3.99-47.31-7.7-65.606-10.516-16.451-27.289-27.177-47.23-30.2L374.446 2.871A77.3 77.3 0 0 0 362.842 2z" fill="#111"/><path d="M1592 234.11 387.523 51.41c-33-5.006-67.94 19.167-78.061 54L58.454 969.3c-10.122 34.837 8.4 67.169 41.4 72.175l1204.479 182.7c33 5.006 67.955-19.215 78.077-54.051l251.008-863.885C1643.54 271.4 1625 239.115 1592 234.11z" fill="#fff"/><g fill="#111"><path d="M1313.036 1225.82a59.024 59.024 0 0 1-8.853-.662l-1204.478-182.7a51.46 51.46 0 0 1-36.273-23.22c-8.97-14.033-11.135-32.338-5.938-50.222L308.5 105.131c10.238-35.236 45.754-59.778 79.171-54.71l1204.48 182.7a51.491 51.491 0 0 1 36.3 23.226c8.958 14.015 11.119 32.3 5.928 50.165L1383.371 1170.4c-9.345 32.158-39.714 55.42-70.335 55.42zM378.786 51.756c-29.753 0-59.271 22.638-68.363 53.933L59.414 969.574c-5.035 17.33-2.957 35.039 5.7 48.587a49.49 49.49 0 0 0 34.888 22.32l1204.479 182.7c32.449 4.923 66.99-19 76.967-53.341l251.008-863.885c5.029-17.312 2.955-35-5.694-48.53a49.514 49.514 0 0 0-34.913-22.326L387.373 52.4a57.185 57.185 0 0 0-8.587-.644zM163.607 523.319c-5.509-.836-11.339 3.158-13.028 8.971s1.411 11.214 6.92 12.05c5.461.828 11.3-3.214 12.994-9.03s-1.425-11.163-6.886-11.991"/><path d="M158.929 545.447a10.616 10.616 0 0 1-1.58-.118 9.423 9.423 0 0 1-6.639-4.257 11.07 11.07 0 0 1-1.091-9.061c1.815-6.245 8.158-10.588 14.138-9.681a9.385 9.385 0 0 1 6.612 4.241 11.016 11.016 0 0 1 1.084 9.018c-1.662 5.721-7.069 9.858-12.524 9.858zm3.2-21.239c-4.607 0-9.18 3.51-10.589 8.361a9.076 9.076 0 0 0 .86 7.431 7.447 7.447 0 0 0 5.254 3.356c5 .758 10.331-2.974 11.884-8.32a9.021 9.021 0 0 0-.849-7.383 7.412 7.412 0 0 0-5.227-3.341 8.973 8.973 0 0 0-1.333-.104z"/></g></svg></g><g transform="translate(712.8 966.0) rotate(0.0 865.8000000000001 529.8) scale(1.200753071052878 1.2009711136751575)"><svg width="1442.095" height="882.286" viewBox="0 0 1442.095 882.286"><path d="m495.333 137.269-214.381-32.518-9.587 32.997 214.38 32.518z" fill="#3658c1"/><path d="M485.746 171.266a.96.96 0 0 1-.151-.011l-214.381-32.518a1.002 1.002 0 0 1-.811-1.267l9.588-32.997a.999.999 0 0 1 1.11-.71l214.38 32.518a1.002 1.002 0 0 1 .811 1.267l-9.587 32.997a.998.998 0 0 1-.959.721zm-213.103-34.335 212.386 32.215 9.024-31.06-212.386-32.215z" fill="#111"/><path d="m582.492 569.92-418.264-63.444-9.573 32.949 418.264 63.444z" fill="#3658c1"/><path d="M572.92 603.869a.96.96 0 0 1-.151-.011l-418.265-63.444a1.002 1.002 0 0 1-.811-1.267l9.574-32.949a1 1 0 0 1 1.11-.71l418.264 63.444a1.002 1.002 0 0 1 .811 1.267l-9.573 32.949a1 1 0 0 1-.959.721zm-416.987-65.261 416.27 63.141 9.01-31.011-416.27-63.141z" fill="#111"/><path d="m663.492 267.634-286.876-43.515-9.587 32.998 286.876 43.514z" fill="#3658c1"/><path d="M653.905 301.631c-.05 0-.1-.003-.151-.011l-286.876-43.515a1.002 1.002 0 0 1-.811-1.267l9.587-32.997a1 1 0 0 1 1.11-.71l286.876 43.515a1.002 1.002 0 0 1 .811 1.267l-9.588 32.997a.998.998 0 0 1-.958.721zm-285.598-45.332 284.881 43.212 9.025-31.06-284.882-43.212z" fill="#111"/><path d="m458.831 656.02-198.939-30.176-9.573 32.949 198.939 30.176z" fill="#b0c3ff"/><path d="M449.259 689.969a.96.96 0 0 1-.151-.011l-198.939-30.176a1.002 1.002 0 0 1-.811-1.267l9.574-32.949a1 1 0 0 1 1.11-.71l198.939 30.176a1.002 1.002 0 0 1 .811 1.267l-9.574 32.949a1 1 0 0 1-.959.721zm-197.662-31.993 196.944 29.873 9.011-31.011-196.944-29.873z" fill="#111"/><path d="m500.736 767.234-270.025-40.958-9.573 32.948 270.024 40.959z" fill="#b0c3ff"/><path d="M491.163 801.182a.96.96 0 0 1-.151-.011l-270.025-40.958a1.002 1.002 0 0 1-.811-1.267l9.574-32.949a.996.996 0 0 1 1.11-.71l270.025 40.958a1.002 1.002 0 0 1 .811 1.267l-9.574 32.948a.998.998 0 0 1-.959.722zm-268.747-42.775 268.03 40.655 9.011-31.011-268.03-40.656z" fill="#111"/><path d="m699.607 377.969-352.172-53.418-9.587 32.997 352.171 53.418z" fill="#b0c3ff"/><path d="M690.02 411.967a.96.96 0 0 1-.151-.011l-352.172-53.418a1.002 1.002 0 0 1-.811-1.267l9.588-32.998a1 1 0 0 1 1.11-.71l352.171 53.419a1.002 1.002 0 0 1 .811 1.267l-9.587 32.997a1 1 0 0 1-.959.721zm-350.894-55.236 350.177 53.116 9.024-31.06-350.177-53.116z" fill="#111"/><path d="m947.598 415.586-208.966-31.697-9.588 32.997 208.967 31.697z" fill="#3658c1"/><path d="M938.011 449.583a.96.96 0 0 1-.151-.011l-208.966-31.697a1.002 1.002 0 0 1-.811-1.267l9.587-32.997a.999.999 0 0 1 1.11-.71l208.966 31.697a1.002 1.002 0 0 1 .811 1.267l-9.588 32.997a.998.998 0 0 1-.958.721zm-207.688-33.514 206.971 31.394 9.025-31.06-206.972-31.394z" fill="#111"/><path d="m569.824 463.141-251.57-38.159-9.587 32.997 251.569 38.159z" fill="#b0c3ff"/><path d="M560.237 497.138a.96.96 0 0 1-.151-.011l-251.569-38.159a1.002 1.002 0 0 1-.811-1.267l9.587-32.998a1 1 0 0 1 1.11-.71l251.569 38.159a1.002 1.002 0 0 1 .811 1.267l-9.587 32.997a1 1 0 0 1-.959.722zm-250.291-39.976 249.575 37.856 9.024-31.06-249.575-37.856z" fill="#111"/><path d="M45.692 488.496c-8.615-1.307-17.765 4.984-20.422 14.129-2.642 9.094 2.234 17.513 10.849 18.819s17.768-4.984 20.41-14.078c2.656-9.144-2.223-17.563-10.837-18.87" fill="#3658c1"/><path d="M38.394 522.615c-.81 0-1.619-.06-2.425-.182-4.227-.642-7.786-2.921-10.021-6.418-2.451-3.834-3.047-8.816-1.638-13.668 2.779-9.562 12.439-16.22 21.532-14.839 4.224.641 7.78 2.918 10.014 6.412 2.456 3.843 3.051 8.846 1.633 13.727-2.525 8.688-10.768 14.968-19.095 14.968zm5.002-33.291c-7.464 0-14.877 5.702-17.166 13.58-1.25 4.299-.738 8.685 1.402 12.034 1.92 3.005 4.988 4.964 8.636 5.518 8.146 1.231 16.799-4.763 19.299-13.368 1.257-4.328.748-8.735-1.398-12.092-1.918-3.001-4.982-4.958-8.628-5.511a14.301 14.301 0 0 0-2.145-.161z" fill="#111"/><path d="M133.235 187.202c-8.615-1.307-17.779 5.033-20.421 14.127-2.643 9.097 2.219 17.564 10.834 18.87s17.782-5.033 20.425-14.129c2.641-9.093-2.224-17.561-10.838-18.868" fill="#3658c1"/><path d="M125.916 221.369c-.807 0-1.615-.059-2.419-.181-4.212-.639-7.762-2.916-9.997-6.412-2.462-3.852-3.063-8.855-1.648-13.726 2.778-9.561 12.438-16.218 21.532-14.837 4.213.639 7.764 2.917 9.999 6.414 2.462 3.852 3.063 8.854 1.649 13.722-2.532 8.718-10.785 15.02-19.116 15.02zm5.023-33.338c-7.464 0-14.876 5.701-17.166 13.578-1.254 4.317-.74 8.725 1.412 12.091 1.919 3.003 4.978 4.96 8.611 5.512 8.14 1.239 16.806-4.784 19.314-13.419 1.254-4.315.739-8.721-1.413-12.087-1.92-3.004-4.979-4.962-8.614-5.514a14.148 14.148 0 0 0-2.144-.161z" fill="#111"/><path d="M74.873 388.065c-8.615-1.307-17.78 5.036-20.422 14.129-2.642 9.094 2.22 17.561 10.835 18.868s17.782-5.033 20.424-14.126c2.641-9.094-2.223-17.564-10.837-18.871" fill="#3658c1"/><path d="M67.554 422.232c-.807 0-1.615-.059-2.418-.181-4.212-.639-7.762-2.916-9.997-6.413-2.462-3.852-3.063-8.854-1.648-13.723 2.779-9.562 12.438-16.217 21.533-14.839 4.212.639 7.762 2.917 9.998 6.414 2.463 3.853 3.064 8.855 1.649 13.725-2.534 8.715-10.787 15.017-19.117 15.017zm5.023-33.339c-7.464 0-14.877 5.701-17.166 13.58-1.254 4.316-.739 8.722 1.413 12.088 1.92 3.003 4.978 4.961 8.612 5.512 8.137 1.236 16.805-4.784 19.313-13.417 1.254-4.316.739-8.723-1.414-12.09-1.92-3.004-4.979-4.962-8.612-5.513-.713-.107-1.43-.16-2.146-.16zM1.001 882.286a1 1 0 0 1-.961-1.279L249.922 20.996a1.001 1.001 0 0 1 1.921.557L1.961 881.565a1 1 0 0 1-.96.721z" fill="#111"/><path d="M1441.096 202.933a.96.96 0 0 1-.151-.011L116.997 2.101a1 1 0 0 1 .3-1.978l1323.948 200.821a1 1 0 0 1-.149 1.989z" fill="#111"/><path d="m900.229 198.685-328.161-49.776-9.588 32.997 328.162 49.777z" fill="#b0c3ff"/><path d="M890.643 232.683a.96.96 0 0 1-.151-.011L562.33 182.895a1.002 1.002 0 0 1-.811-1.267l9.588-32.997c.141-.481.62-.786 1.11-.71l328.162 49.776a1.002 1.002 0 0 1 .811 1.267l-9.588 32.998a1 1 0 0 1-.959.721zm-326.884-51.594 326.167 49.474 9.025-31.06-326.167-49.474z" fill="#111"/><path d="m1122.709 232.432-183.406-27.82-9.587 32.997 183.405 27.82z" fill="#b0c3ff"/><path d="M1113.122 266.429a.96.96 0 0 1-.151-.011l-183.406-27.819a1.002 1.002 0 0 1-.811-1.267l9.588-32.998c.14-.482.623-.788 1.11-.71l183.405 27.82a1.002 1.002 0 0 1 .811 1.267l-9.587 32.997a1 1 0 0 1-.959.721zm-182.128-29.637 181.411 27.517 9.024-31.06-181.411-27.517z" fill="#111"/><path d="M894.462 617.241 678.15 584.43l-9.573 32.948 216.311 32.811z" fill="#b0c3ff"/><path d="M884.889 651.189a.96.96 0 0 1-.151-.011l-216.312-32.811a1.002 1.002 0 0 1-.811-1.267l9.573-32.948c.14-.482.618-.784 1.11-.71l216.312 32.811a1.002 1.002 0 0 1 .811 1.267l-9.573 32.949a.999.999 0 0 1-.959.72zm-215.033-34.628 214.317 32.508 9.01-31.011-214.317-32.508z" fill="#111"/><path d="M1372.202 138.728c-2.48-.376-4.785-1.455-6.63-3.266-5.27-5.21-4.668-14.56 1.327-20.812 3.923-4.114 9.201-5.898 13.86-5.191 2.477.376 4.777 1.454 6.606 3.262 5.302 5.266 4.714 14.567-1.281 20.819-3.953 4.11-9.221 5.895-13.882 5.188m13.663-56.534-13.586 1.258-.547 9.153c-3.818 1.135-7.556 3.006-11.046 5.536l-5.957-5.883-10.22 10.641 5.959 5.886a40.035 40.035 0 0 0-5.169 11.357l-8.986.816-.856 13.776 8.986-.816c.577 3.769 1.85 7.335 3.771 10.534l-6.77 7.066 8.967 8.884 6.774-7.068c3.004 1.756 6.277 2.883 9.691 3.401.263.04.524.077.79.109l-.562 9.204 13.541-1.268.593-9.146c3.834-1.183 7.572-3.054 11.046-5.536l5.957 5.883 10.171-10.649-5.91-5.879c2.383-3.633 4.103-7.521 5.12-11.364l9-.864.859-13.775-8.986.816a27.319 27.319 0 0 0-3.771-10.534l6.77-7.066-8.982-8.833-6.759 7.017c-2.96-1.752-6.231-2.876-9.684-3.4-.263-.04-.53-.077-.797-.11z" fill="#3658c1"/><path d="M1367.104 167.047a1 1 0 0 1-.998-1.061l.506-8.28a28.225 28.225 0 0 1-9.243-3.12l-6.235 6.507a1.001 1.001 0 0 1-1.426.018l-8.967-8.884a1 1 0 0 1-.019-1.402l6.249-6.521a29.739 29.739 0 0 1-3.359-9.307l-8.063.732a1.016 1.016 0 0 1-.787-.279 1.002 1.002 0 0 1-.301-.779l.856-13.776a1 1 0 0 1 .908-.934l8.304-.753a41.01 41.01 0 0 1 4.66-10.282l-5.38-5.315a1 1 0 0 1-.019-1.404l10.22-10.641a.998.998 0 0 1 .708-.307c.268.009.525.101.716.289l5.36 5.293c3.177-2.207 6.529-3.881 9.983-4.986l.506-8.461a.999.999 0 0 1 .906-.936l13.586-1.258a1.003 1.003 0 0 1 1.091 1.061l-.533 8.219c3.327.517 6.432 1.564 9.243 3.117l6.218-6.456c.185-.192.439-.302.707-.306a.96.96 0 0 1 .715.287l8.982 8.833a1 1 0 0 1 .021 1.405l-6.244 6.516a28.173 28.173 0 0 1 3.365 9.312l8.053-.731a1 1 0 0 1 1.089 1.058l-.859 13.775a1.001 1.001 0 0 1-.902.934l-8.314.798c-1.01 3.533-2.596 7.063-4.624 10.294l5.337 5.31a1 1 0 0 1 .018 1.4l-10.171 10.648a.998.998 0 0 1-1.425.02l-5.364-5.297c-3.164 2.169-6.516 3.843-9.982 4.984l-.549 8.465c-.032.49-.416.885-.905.931l-13.541 1.268-.097.002zm-9.919-14.714c.173 0 .347.045.504.137a26.183 26.183 0 0 0 9.336 3.276c.253.039.504.074.759.104a1 1 0 0 1 .879 1.054l-.491 8.039 11.529-1.08.538-8.294c.027-.414.307-.768.703-.891 3.75-1.157 7.37-2.972 10.759-5.394a1 1 0 0 1 1.284.102l5.233 5.168 8.792-9.205-5.215-5.188a1 1 0 0 1-.131-1.258c2.257-3.439 3.982-7.268 4.99-11.071a1 1 0 0 1 .871-.74l8.151-.783.733-11.76-7.825.711a1.004 1.004 0 0 1-1.081-.857 26.22 26.22 0 0 0-3.633-10.15 1 1 0 0 1 .13-1.215l6.088-6.353-7.558-7.433-6.058 6.29a1 1 0 0 1-1.229.167c-2.799-1.657-5.936-2.757-9.324-3.271a23.59 23.59 0 0 0-.767-.106 1 1 0 0 1-.878-1.058l.518-7.977-11.566 1.071-.496 8.296a1 1 0 0 1-.713.899c-3.728 1.108-7.342 2.921-10.744 5.387a1 1 0 0 1-1.29-.098l-5.235-5.17-8.834 9.199 5.257 5.193c.34.335.395.865.131 1.263a39.057 39.057 0 0 0-5.04 11.073 1 1 0 0 1-.873.728l-8.131.738-.73 11.756 7.825-.711c.523-.04.999.322 1.079.845.56 3.659 1.785 7.081 3.64 10.171a1 1 0 0 1-.135 1.207l-6.09 6.356 7.546 7.477 6.07-6.334a.994.994 0 0 1 .722-.31zm17.07-12.451c-.738 0-1.473-.055-2.203-.165-2.766-.42-5.249-1.645-7.18-3.542-5.662-5.598-5.075-15.563 1.306-22.217 4.028-4.224 9.537-6.277 14.731-5.488 2.767.42 5.242 1.644 7.16 3.54 5.662 5.624 5.095 15.592-1.263 22.222-3.488 3.626-8.05 5.65-12.551 5.65zm-1.903-2.143c4.54.688 9.403-1.141 13.012-4.893 5.607-5.846 6.189-14.557 1.297-19.416-1.613-1.595-3.707-2.627-6.052-2.983-4.557-.692-9.407 1.139-12.986 4.892-5.631 5.873-6.235 14.579-1.348 19.411 1.628 1.598 3.73 2.633 6.077 2.989z" fill="#111"/><path d="M1287.566 118.909c-3.24 3.176-6.977 5.759-10.984 7.592l15.323 26.684c.71 1.2 1.877 1.92 3.195 2.12s2.787-.121 4.102-1.013l1.429-1.027c2.646-1.828 3.642-5.257 2.238-7.703z" fill="#3658c1"/><path d="M1295.87 156.363c-.309 0-.616-.023-.92-.069-1.677-.255-3.064-1.178-3.906-2.6l-15.329-26.696a1 1 0 0 1 .451-1.407c3.924-1.795 7.524-4.283 10.7-7.397a.997.997 0 0 1 1.567.217l15.303 26.653c1.676 2.919.562 6.883-2.537 9.023l-1.414 1.017c-1.219.828-2.577 1.259-3.915 1.259zm-17.882-29.423 14.784 25.747c.523.884 1.405 1.467 2.478 1.629 1.124.17 2.33-.132 3.39-.852l1.407-1.012c2.228-1.539 3.098-4.402 1.955-6.393l-14.669-25.549a39.528 39.528 0 0 1-9.345 6.43z" fill="#111"/><path d="M1260.729 121.27c-12.428-1.885-19.414-14.047-15.602-27.166s16.978-22.227 29.406-20.342 19.411 14.049 15.599 27.168c-3.812 13.12-16.975 22.225-29.403 20.34m16.114-55.458c-16.619-2.521-34.196 9.6-39.293 27.143-5.097 17.541 4.236 33.796 20.855 36.317 6.153.933 12.441-.151 18.178-2.771 4.007-1.833 7.744-4.416 10.984-7.592 4.643-4.554 8.254-10.32 10.145-16.828 5.097-17.544-4.253-33.749-20.869-36.269" fill="#3658c1"/><g fill="#111"><path d="M1262.81 130.602c-1.532 0-3.054-.113-4.556-.341-7.858-1.192-14.471-5.425-18.622-11.919-4.588-7.177-5.697-16.532-3.043-25.666 5.214-17.947 23.34-30.442 40.404-27.853 7.873 1.194 14.494 5.429 18.646 11.924 4.577 7.16 5.682 16.495 3.033 25.612-1.876 6.458-5.475 12.427-10.406 17.264-3.342 3.276-7.133 5.896-11.268 7.787-4.625 2.113-9.455 3.192-14.188 3.192zm9.621-64.12c-14.765 0-29.411 11.228-33.921 26.752-2.493 8.581-1.47 17.339 2.807 24.031 3.836 6.001 9.958 9.915 17.237 11.019 5.756.873 11.846-.058 17.613-2.692 3.923-1.794 7.523-4.283 10.699-7.396 4.687-4.596 8.105-10.265 9.885-16.393 2.488-8.564 1.469-17.303-2.797-23.978-3.837-6.002-9.967-9.917-17.261-11.023a28.241 28.241 0 0 0-4.262-.32zm-8.43 56.033c-1.143 0-2.284-.083-3.421-.256-5.95-.903-10.959-4.11-14.105-9.031-3.471-5.431-4.312-12.502-2.308-19.402 3.941-13.562 17.623-23.004 30.516-21.052 5.948.902 10.956 4.109 14.101 9.029 3.472 5.432 4.313 12.505 2.308 19.407-3.593 12.363-15.29 21.305-27.091 21.305zm-3.122-2.234c11.929 1.813 24.622-6.997 28.292-19.629 1.845-6.349 1.089-12.827-2.072-17.772-2.83-4.427-7.346-7.314-12.716-8.128-11.934-1.812-24.625 6.998-28.295 19.632-1.844 6.347-1.089 12.823 2.072 17.768 2.83 4.427 7.348 7.315 12.719 8.129zM568.85 104.838c-38.499-9.903-20.892 50.181-48.714 48.23l-2.873 9.889c26.582 6.225-23.099 56.048 17.742 58.364l2.758-9.493c-6.643-.868-10.793-2.031-9.242-9.132 2.076-10.664 13.72-35.59-.225-43.203 16.914-6.095 15.962-14.97 22.545-34.454 2.868-10.289 5.513-12.48 15.237-10.66z"/><path d="m535.005 222.321-.057-.001c-7.722-.438-12.797-2.548-15.515-6.452-4.535-6.512-1.439-16.61 1.554-26.375 2.628-8.572 5.11-16.669 2.347-21.478-1.166-2.029-3.227-3.365-6.299-4.084a1.001 1.001 0 0 1-.732-1.253l2.874-9.889a1.006 1.006 0 0 1 1.03-.719c11.81.823 14.934-10.535 18.255-22.564 4.05-14.669 8.641-31.296 30.638-25.637a1 1 0 0 1 .712 1.247l-2.772 9.542c-.144.494-.64.798-1.145.704-9.046-1.693-11.287-.113-14.09 9.946-1.266 3.752-2.254 7.106-3.126 10.066-3.618 12.28-5.687 19.297-18.176 24.348 9.511 7.127 4.725 23.198 1.18 35.104-.944 3.169-1.759 5.907-2.179 8.062-.512 2.345-.38 4.012.398 5.119 1.156 1.644 3.806 2.283 7.992 2.83a1.001 1.001 0 0 1 .831 1.27l-2.758 9.493c-.127.429-.52.721-.962.721zm-16.497-60.068c3.058.909 5.262 2.508 6.559 4.766 3.196 5.561.59 14.062-2.168 23.061-2.854 9.308-5.804 18.932-1.825 24.646 2.255 3.238 6.576 5.056 13.194 5.546l2.211-7.608c-3.596-.517-6.635-1.259-8.215-3.505-1.118-1.591-1.354-3.774-.721-6.674.434-2.229 1.262-5.009 2.22-8.229 3.548-11.914 8.407-28.231-1.948-33.883a1 1 0 0 1 .14-1.819c13.209-4.759 15.078-11.104 18.802-23.744.877-2.978 1.872-6.352 3.134-10.089 2.967-10.649 6.081-13.068 15.475-11.482l2.23-7.676c-19.229-4.445-23.106 9.612-27.209 24.478-3.27 11.843-6.649 24.075-18.943 24.076-.188 0-.378-.003-.57-.009zm634.877 31.249-3.203-.486-2.772 9.541c25.742.482-12.203 37.566 9.482 52.284-27.121 5.803-14.125 52.011-37.797 45.166l-2.758 9.493c38.233 10.096 20.536-49.301 48.729-48.282l2.873-9.889c-25.662-6.719 20.261-54.421-14.554-57.827"/><path d="M1124.308 311.648c-2.432 0-5.158-.371-8.227-1.182a1.002 1.002 0 0 1-.705-1.245l2.758-9.493a1 1 0 0 1 1.238-.682c3.346.967 6.003.858 8.124-.334 4.338-2.439 6.232-9.416 8.237-16.801 3.024-11.144 6.433-23.7 18.913-27.521-9.367-7.978-5.234-20.952-1.879-31.485 2.209-6.938 4.297-13.491 1.968-16.74-1.207-1.685-3.61-2.537-7.345-2.607a1 1 0 0 1-.942-1.279l2.772-9.541a1.001 1.001 0 0 1 1.11-.71l3.177.482c6.107.602 10.181 2.546 12.454 5.941 4.167 6.224 1.195 16.056-1.678 25.563-2.532 8.376-5.149 17.037-2.331 22.067 1.169 2.087 3.21 3.487 6.239 4.28a1 1 0 0 1 .707 1.246l-2.874 9.889a1.003 1.003 0 0 1-.997.721c-12.045-.449-15.199 11.007-18.561 23.119-3.451 12.443-7.302 26.312-22.158 26.312zm-6.721-2.866c19.037 4.533 22.887-9.325 26.955-23.981 3.354-12.087 6.824-24.577 19.777-24.597l2.382-8.197c-3.018-.981-5.2-2.643-6.492-4.949-3.233-5.773-.613-14.443 2.162-23.624 2.739-9.062 5.571-18.434 1.931-23.872-1.922-2.872-5.525-4.529-11.013-5.066-.018-.001-.035-.004-.053-.006l-2.337-.354-2.173 7.479c3.693.265 6.198 1.377 7.636 3.384 2.914 4.065.781 10.76-1.688 18.512-3.513 11.029-7.494 23.529 2.78 30.502a.999.999 0 0 1-.352 1.806c-12.967 2.774-16.405 15.44-19.438 26.616-2.117 7.802-4.118 15.171-9.187 18.021-2.393 1.346-5.246 1.6-8.694.769zM669.99 539.609c-38.623-9.82-20.96 50.145-48.714 48.233l-2.859 9.838c26.424 5.96-23.009 55.978 17.728 58.413l2.772-9.541c-6.654-.883-10.789-2.011-9.288-9.139 2.043-10.692 13.834-35.519-.24-43.152 16.832-6.035 16.081-15.044 22.56-34.506 2.92-10.28 5.544-12.463 15.283-10.653z"/><path d="M636.145 657.093c-.02 0-.04 0-.06-.002-7.685-.459-12.745-2.585-15.469-6.5-4.572-6.57-1.479-16.739 1.511-26.572 2.604-8.56 5.062-16.646 2.304-21.388-1.158-1.99-3.197-3.29-6.234-3.975a1.002 1.002 0 0 1-.74-1.254l2.858-9.838a.997.997 0 0 1 1.029-.719c11.748.808 14.869-10.513 18.173-22.501 4.045-14.681 8.628-31.319 30.719-25.704a1 1 0 0 1 .714 1.248l-2.758 9.493a1.005 1.005 0 0 1-1.143.705c-9.038-1.68-11.287-.101-14.139 9.943-1.2 3.607-2.155 6.863-2.999 9.736-3.674 12.516-5.772 19.667-18.307 24.724 9.553 7.105 4.773 23.062 1.233 34.883-.969 3.236-1.806 6.031-2.226 8.229-.495 2.351-.354 4.022.429 5.128 1.276 1.803 4.516 2.368 8.008 2.832a.999.999 0 0 1 .829 1.27l-2.772 9.542c-.125.428-.518.72-.96.72zm-16.48-60.124c3.022.875 5.204 2.438 6.494 4.656 3.197 5.496.615 13.986-2.119 22.976-2.852 9.377-5.8 19.074-1.783 24.848 2.261 3.25 6.568 5.083 13.151 5.592l2.225-7.657c-3.603-.524-6.648-1.269-8.226-3.5-1.122-1.586-1.37-3.77-.757-6.677.436-2.28 1.286-5.12 2.271-8.409 3.542-11.824 8.392-28.017-2.009-33.658a1 1 0 0 1 .139-1.82c13.256-4.753 15.156-11.225 18.941-24.118.848-2.889 1.81-6.164 3.007-9.762 2.823-9.943 5.531-13.137 15.522-11.478l2.216-7.626c-19.319-4.412-23.191 9.66-27.292 24.539-3.302 11.984-6.731 24.379-19.43 24.004zm310.417-17.908-3.249-.493-2.758 9.493c6.584.904 10.854 1.93 9.271 9.032-2.044 11.15-13.749 34.933.242 43.31-21.091 5.373-16.583 29.117-27.419 44.3-1.79 1.681-6.691 1.564-10.409.808l-2.772 9.541c38.618 9.751 20.734-49.765 48.789-48.323l2.859-9.838c-25.655-6.154 20.252-54.367-14.554-57.83"/><path d="M900.82 697.128c-2.396 0-5.074-.349-8.077-1.107a.998.998 0 0 1-.716-1.249l2.772-9.542c.146-.5.652-.804 1.16-.701 4.113.836 8.141.619 9.459-.498 3.82-5.396 5.703-11.998 7.524-18.383 3.018-10.58 6.133-21.502 18.367-25.618-9.302-7.526-4.69-22.968-1.273-34.413.972-3.253 1.889-6.327 2.326-8.706.513-2.307.393-3.937-.36-5.02-1.233-1.774-4.381-2.336-8.063-2.841a1 1 0 0 1-.825-1.269l2.758-9.493c.14-.481.618-.785 1.11-.71l3.223.489c6.082.609 10.147 2.562 12.426 5.969 4.211 6.294 1.221 16.235-1.672 25.849-2.52 8.374-5.125 17.032-2.302 21.944 1.166 2.029 3.197 3.366 6.209 4.088a1 1 0 0 1 .727 1.251l-2.858 9.838a.994.994 0 0 1-1.012.72c-11.93-.592-15.051 10.747-18.365 22.773-3.465 12.589-7.334 26.628-22.538 26.629zm-6.579-2.805c19.28 4.37 23.125-9.591 27.191-24.354 3.311-12.015 6.733-24.434 19.601-24.265l2.358-8.115c-3-.913-5.173-2.512-6.466-4.763-3.252-5.659-.642-14.333 2.121-23.517 2.759-9.169 5.611-18.65 1.924-24.161-1.929-2.883-5.523-4.549-10.987-5.093l-.051-.006-2.383-.361-2.192 7.545c3.766.559 6.742 1.295 8.288 3.518 1.09 1.568 1.312 3.713.678 6.559-.448 2.45-1.381 5.573-2.369 8.881-3.428 11.48-8.123 27.204 2.148 33.354a1 1 0 0 1-.266 1.827c-12.82 3.266-15.807 13.738-18.969 24.826-1.878 6.583-3.819 13.391-7.883 19.085a1.07 1.07 0 0 1-.129.148c-2.002 1.879-6.649 1.859-10.386 1.227z"/></g><path d="M827.255 27.338 653.62 1l-7.499 25.807 173.636 26.338z" fill="#3658c1"/><path d="M819.758 54.145a.96.96 0 0 1-.151-.011L645.971 27.796a1.002 1.002 0 0 1-.811-1.267L652.659.722a1 1 0 0 1 1.11-.71l173.636 26.337a1.002 1.002 0 0 1 .811 1.267l-7.499 25.808a1 1 0 0 1-.959.721zM647.4 25.99l171.641 26.035 6.936-23.87L654.336 2.12z" fill="#111"/><path d="m951.461 46.178-86.79-13.165-7.499 25.807 86.791 13.165z" fill="#3658c1"/><path d="M943.964 72.985a.96.96 0 0 1-.151-.011l-86.79-13.165a1.002 1.002 0 0 1-.811-1.267l7.499-25.808a1.003 1.003 0 0 1 1.11-.71l86.79 13.165a1.002 1.002 0 0 1 .811 1.267l-7.499 25.808a1 1 0 0 1-.959.721zm-85.513-14.982 84.795 12.862 6.936-23.87-84.795-12.862z" fill="#111"/></svg></g><g transform="translate(321.59999999999997 1375.2) rotate(17.985901683263116 486.6 403.19999999999993) scale(1.2005358742126573 1.2005788505172135)"><svg width="810.638" height="671.676" viewBox="0 0 810.638 671.676"><linearGradient id="b" gradientTransform="matrix(.99863865 -.05216166 .05216166 .99863865 -172.217 -50.032)" gradientUnits="userSpaceOnUse" x1="918.683" x2="748.451" y1="183.363" y2="539.294"><stop offset=".326" stop-color="#3658c1"/><stop offset=".769" stop-color="#b0c3ff"/><stop offset="1" stop-color="#3658c1"/></linearGradient><path d="M2.017 639.15c2.48-7.743 7.731-14.432 13.656-19.859a77.954 77.954 0 0 1 6.259-5.174l231.912-171.69c-1.144 8.841 24.627 43.659 33.282 44.96-2.058 1.476-232.032 171.871-233.967 173.163a79.16 79.16 0 0 1-8.349 5c-20.057 12.15-49.681 2.444-42.793-26.4z" fill="#3658c1"/><path d="M26.53 671.7a29.2 29.2 0 0 1-17.24-5.248c-8.139-5.939-11.067-15.717-8.245-27.534q.009-.036.021-.072c2.263-7.07 6.951-13.9 13.931-20.292a78.818 78.818 0 0 1 6.326-5.229l231.926-171.7a1 1 0 0 1 1.587.932c-1.064 8.217 24.4 42.635 32.439 43.843a1 1 0 0 1 .434 1.8c-.749.537-32.095 23.751-71.779 53.141-71.717 53.11-160.97 119.209-162.217 120.041a80.718 80.718 0 0 1-8.448 5.061A36.438 36.438 0 0 1 26.53 671.7zM2.982 639.419c-2.609 10.964.05 19.99 7.488 25.416 8.971 6.547 22.881 6.489 33.823-.138a79.376 79.376 0 0 0 8.3-4.97c1.456-.99 94.333-69.772 162.148-119.995 34.968-25.9 63.461-47 70.269-52.027-9.768-4.8-30.3-32.54-32.074-43.36L22.526 614.921a76.9 76.9 0 0 0-6.164 5.094C9.64 626.174 5.143 632.7 2.982 639.419z" fill="#111"/><ellipse cx="270.485" cy="464.907" fill="#fff" rx="4.85" ry="27.962" transform="matrix(.80372188 -.59500516 .59500516 .80372188 -223.533 252.195)"/><path d="M286.525 488.571a5.121 5.121 0 0 1-2.393-.777c-5.417-3.025-16.224-15.455-24.092-27.71-3.665-5.709-9.454-15.672-7.038-18.241.8-.855 2.095-.8 3.836.177 5.415 3.023 16.223 15.453 24.093 27.709 3.665 5.709 9.454 15.671 7.037 18.242a1.9 1.9 0 0 1-1.443.6zm-32.058-45.326a.315.315 0 0 0-.063 0c-.417.675.727 5.485 7.32 15.754 7.717 12.022 18.208 24.154 23.383 27.044 1.078.6 1.454.519 1.459.516.417-.675-.726-5.485-7.319-15.754-7.72-12.023-18.21-24.155-23.384-27.044a3.193 3.193 0 0 0-1.396-.516z" fill="#111"/><ellipse cx="412.824" cy="359.53" fill="#fff" rx="4.85" ry="27.962" transform="matrix(.80372188 -.59500516 .59500516 .80372188 -132.894 316.204)"/><path d="M428.863 383.194a5.121 5.121 0 0 1-2.392-.777c-5.417-3.024-16.225-15.455-24.092-27.709-3.666-5.709-9.455-15.671-7.038-18.242.8-.855 2.095-.8 3.836.177 5.417 3.025 16.223 15.455 24.092 27.71 3.666 5.709 9.455 15.671 7.038 18.241a1.9 1.9 0 0 1-1.444.6zm-32.057-45.326a.315.315 0 0 0-.063 0c-.417.675.726 5.486 7.32 15.754 7.717 12.022 18.208 24.154 23.382 27.044 1.079.6 1.454.518 1.459.516.417-.674-.725-5.485-7.319-15.754-7.718-12.022-18.208-24.154-23.383-27.044a3.2 3.2 0 0 0-1.396-.516z" fill="#111"/><path d="M253.406 443.97a1.694 1.694 0 0 1 .438-1.543L396.183 337.05c-3.586 6.5 27.038 47.1 33.282 44.96L287.126 487.387c-.464.344-1.294.211-2.507-.466-9.766-6.475-28.226-30.189-31.213-42.951z" fill="#fff"/><path d="M286.5 488.571a5.23 5.23 0 0 1-2.369-.777c-10.316-6.836-28.739-30.945-31.7-43.6a.94.94 0 0 1-.025-.159 2.585 2.585 0 0 1 .84-2.415l142.34-105.377a1 1 0 0 1 1.471 1.286c-1.657 3 7.222 18.286 18.268 31.453 8.665 10.327 12.823 12.418 13.815 12.078a1 1 0 0 1 .918 1.75L287.721 488.19a2 2 0 0 1-1.221.381zm-32.1-44.746c2.935 12.307 20.81 35.658 30.772 42.262 1.014.564 1.39.48 1.394.477l140.453-103.987c-3.749-1.683-9.019-7.294-13.224-12.306-6.383-7.608-17.983-23.617-18.834-31.072L254.439 443.23a2.148 2.148 0 0 0-.039.595z" fill="#111"/><path d="m494.321 398.164 24.727 11.265c-27.28-12.428-51.373-32.8-69.093-60.607-52.6-82.558-29.143-199.474 52.438-261.1 54.126-40.886 120.2-47.179 173.908-22.71l-24.726-11.261c-53.712-24.47-119.782-18.176-173.908 22.709-81.581 61.624-105.04 178.539-52.438 261.1 17.719 27.811 41.812 48.179 69.092 60.607" fill="#fff"/><path d="M519.047 410.429a1 1 0 0 1-.414-.09l-24.727-11.265a162.435 162.435 0 0 1-69.521-60.98c-52.805-82.877-29.173-200.6 52.68-262.432 26.26-19.837 56.549-32.306 87.59-36.058a163.272 163.272 0 0 1 87.334 13.237l24.727 11.264a1 1 0 0 1-.83 1.821 161.235 161.235 0 0 0-86.264-13.071C558.931 56.564 528.976 68.9 503 88.522c-81.039 61.216-104.454 177.744-52.2 259.763a160.444 160.444 0 0 0 68.664 60.234 1 1 0 0 1-.416 1.91zm65.745-370.04a165.743 165.743 0 0 0-19.9 1.2C534.2 45.3 504.25 57.633 478.27 77.258 397.23 138.473 373.814 255 426.072 337.02a160.431 160.431 0 0 0 68.664 60.234l1.961.894a164.574 164.574 0 0 1-47.586-48.789c-52.8-82.877-29.172-200.6 52.679-262.432 26.262-19.838 56.551-32.306 87.592-36.058a164.91 164.91 0 0 1 63.634 4.638l-1.857-.846a159.982 159.982 0 0 0-66.367-14.272z" fill="#111"/><path d="m494.321 398.164 24.727 11.265c-27.28-12.428-51.373-32.8-69.093-60.607-52.6-82.558-29.143-199.474 52.438-261.1 54.126-40.886 120.2-47.179 173.908-22.71l-24.726-11.261c-53.712-24.47-119.782-18.176-173.908 22.709-81.581 61.624-105.04 178.539-52.438 261.1 17.719 27.811 41.812 48.179 69.092 60.607" fill="#fff"/><path d="M519.047 410.429a1 1 0 0 1-.414-.09l-24.727-11.265a162.435 162.435 0 0 1-69.521-60.98c-52.805-82.877-29.173-200.6 52.68-262.432 26.26-19.837 56.549-32.306 87.59-36.058a163.272 163.272 0 0 1 87.334 13.237l24.727 11.264a1 1 0 0 1-.83 1.821 161.235 161.235 0 0 0-86.264-13.071C558.931 56.564 528.976 68.9 503 88.522c-81.039 61.216-104.454 177.744-52.2 259.763a160.444 160.444 0 0 0 68.664 60.234 1 1 0 0 1-.416 1.91zm65.745-370.04a165.743 165.743 0 0 0-19.9 1.2C534.2 45.3 504.25 57.633 478.27 77.258 397.23 138.473 373.814 255 426.072 337.02a160.431 160.431 0 0 0 68.664 60.234l1.961.894a164.574 164.574 0 0 1-47.586-48.789c-52.8-82.877-29.172-200.6 52.679-262.432 26.262-19.838 56.551-32.306 87.592-36.058a164.91 164.91 0 0 1 63.634 4.638l-1.857-.846a159.982 159.982 0 0 0-66.367-14.272z" fill="#111"/><path d="M477.667 76.46c-81.581 61.624-105.04 178.54-52.438 261.1s161.365 99.527 242.945 37.9C749.8 313.8 773.292 196.932 720.69 114.375S559.294 14.8 477.667 76.46z" fill="#fff"/><path d="M561.4 413.571a166.167 166.167 0 0 1-29.493-2.64c-44.525-8.023-82.712-33.89-107.526-72.836-52.805-82.877-29.173-200.6 52.68-262.433l.6.8-.6-.8c40.909-30.9 89.529-43.222 136.9-34.683 44.543 8.026 82.744 33.9 107.565 72.858 52.788 82.851 29.122 200.572-52.756 262.421-32.424 24.498-69.705 37.313-107.37 37.313zM478.27 77.258C397.231 138.473 373.815 255 426.072 337.021c24.511 38.469 62.224 64.019 106.194 71.942 46.805 8.433 94.858-3.747 135.306-34.3 81.065-61.235 104.515-177.758 52.274-259.75-24.518-38.482-62.246-64.039-106.233-71.966-46.818-8.438-94.883 3.753-135.343 34.311z" fill="#111"/><path d="m478.132 433.575 24.727 11.264c64.758 29.5 144.419 21.909 209.639-27.357 98.395-74.324 126.724-215.277 63.312-314.8-21.371-33.542-50.429-58.108-83.331-73.1l-24.727-11.263c32.9 14.989 61.96 39.554 83.332 73.1 63.412 99.524 35.082 240.477-63.312 314.8-65.221 49.265-144.881 56.858-209.64 27.357" fill="url(#b)"/><path d="M583.377 463.155a195.112 195.112 0 0 1-80.934-17.4l-24.725-11.265a1 1 0 1 1 .829-1.82 194.656 194.656 0 0 0 104.111 15.776c37.035-4.474 73.174-19.35 104.511-43.021 97.825-73.9 126.119-214.516 63.071-313.467-20.53-32.222-49.2-57.37-82.9-72.724a1 1 0 0 1 .829-1.821l24.727 11.265c34.057 15.515 63.021 40.921 83.76 73.47 30.81 48.356 41.165 107.872 29.159 167.585S760.882 382.187 713.1 418.28c-31.618 23.884-68.091 38.9-105.476 43.411a202.111 202.111 0 0 1-24.247 1.464zM503.654 444.1a194.707 194.707 0 0 0 103.731 15.6c37.035-4.475 73.174-19.351 104.511-43.022 97.825-73.894 126.119-214.515 63.071-313.466-20.475-32.135-49.045-57.235-82.632-72.6a197.994 197.994 0 0 1 59.593 60.261c30.809 48.356 41.165 107.872 29.158 167.586s-44.931 112.459-92.712 148.552c-31.618 23.889-68.091 38.9-105.474 43.416a198.482 198.482 0 0 1-79.246-6.327z" fill="#111"/><path d="M751.084 91.416c63.412 99.524 35.082 240.477-63.312 314.8-98.346 74.287-229.524 53.822-292.936-45.7-63.442-99.573-35.113-240.526 63.233-314.816 98.395-74.322 229.573-53.856 293.015 45.716zm-82.91 284.044C749.8 313.8 773.292 196.932 720.69 114.374S559.294 14.8 477.667 76.46c-81.581 61.624-105.04 178.539-52.438 261.1s161.365 99.527 242.945 37.9" fill="#b0c3ff"/><path d="M558.673 451.918a198.027 198.027 0 0 1-35.164-3.147c-53.637-9.666-99.634-40.818-129.517-87.718-30.821-48.374-41.188-107.9-29.19-167.623C376.8 133.73 409.7 80.982 457.467 44.9a221.544 221.544 0 0 1 81.055-38.97 200.659 200.659 0 0 1 83.857-2.811c53.644 9.667 99.651 40.832 129.549 87.755 30.809 48.356 41.165 107.872 29.158 167.586s-44.931 112.459-92.712 148.552a221.416 221.416 0 0 1-81.025 38.949 204.2 204.2 0 0 1-48.676 5.957zM587.219 1.977A202.213 202.213 0 0 0 539 7.876 219.555 219.555 0 0 0 458.672 46.5c-97.8 73.875-126.057 214.5-62.992 313.478 29.579 46.424 75.1 77.259 128.184 86.825a198.668 198.668 0 0 0 83.009-2.78 219.431 219.431 0 0 0 80.3-38.6c97.825-73.9 126.119-214.515 63.071-313.467-29.597-46.45-75.132-77.298-128.22-86.865a196.055 196.055 0 0 0-34.805-3.114zM561.4 413.571a166.167 166.167 0 0 1-29.493-2.64c-44.525-8.023-82.712-33.89-107.526-72.836-52.805-82.878-29.173-200.6 52.68-262.433 40.909-30.9 89.529-43.22 136.9-34.683 44.543 8.026 82.743 33.9 107.565 72.858 52.788 82.851 29.122 200.572-52.756 262.421-32.424 24.498-69.705 37.313-107.37 37.313zm23.07-373.232c-37.242 0-74.114 12.678-106.2 36.919C397.23 138.473 373.814 255 426.072 337.02c24.511 38.469 62.225 64.02 106.194 71.943 46.805 8.433 94.858-3.747 135.306-34.3l.6.8-.6-.8c81.065-61.235 104.515-177.758 52.274-259.75-24.518-38.482-62.246-64.039-106.233-71.966a164.227 164.227 0 0 0-29.139-2.608z" fill="#111"/></svg></g><g transform="translate(841.1999999999999 1564.8) rotate(0.0 186.59999999999997 171.60000000000002) scale(1.2032693330753976 1.201773245838265)"><svg width="310.155" height="285.578" viewBox="0 0 310.155 285.578"><path d="M214.164 5.594c-3.784-2.271-8.925-.469-10.869 3.659-3.12 6.728-5.683 17.321-4.128 25.914a28.655 28.655 0 0 1 15.6-.223c-2.533-6.258-.551-14.458 1.853-20.093l.035-.091.006.003c1.646-3.467.52-7.356-2.497-9.169m41.843 25.142c-3.003-1.804-7.138-1.092-9.665 1.83l-.003-.003-.03.046c-3.857 4.307-11.674 10.127-18.1 10.41 3.571 3.879 5.822 8.619 6.593 13.567 8.402-2.239 17.776-9.37 22.523-14.869 3.024-3.486 2.441-8.731-1.318-10.981" fill="#111"/><path d="M234.8 57.586a1.002 1.002 0 0 1-.988-.847c-.754-4.846-2.947-9.356-6.341-13.043a1 1 0 0 1 .692-1.677c5.656-.25 13.174-5.368 17.386-10.063l.039-.043-.003-.002c2.792-3.227 7.492-4.102 10.935-2.033 1.945 1.165 3.27 3.143 3.635 5.428.4 2.509-.356 5.084-2.077 7.066-5.038 5.836-14.563 12.926-23.021 15.181a1.018 1.018 0 0 1-.257.033zm-4.611-13.795c2.716 3.39 4.562 7.325 5.401 11.524 7.734-2.425 16.461-9.021 20.977-14.252 1.333-1.537 1.921-3.52 1.614-5.442-.275-1.725-1.23-3.155-2.687-4.027l-.001-.001c-2.621-1.574-6.229-.875-8.394 1.627l-.044.056c-3.38 3.771-10.357 9.307-16.866 10.515zm-31.022-7.623a1.002 1.002 0 0 1-.984-.821c-1.676-9.261 1.217-20.07 4.205-26.513a9.157 9.157 0 0 1 5.617-4.848c2.32-.707 4.689-.439 6.674.752 3.481 2.092 4.722 6.587 2.885 10.455a.398.398 0 0 1-.021.041l-.004.01c-1.164 2.728-4.737 12.183-1.846 19.326a.998.998 0 0 1-1.185 1.341 27.602 27.602 0 0 0-15.055.216 1.03 1.03 0 0 1-.286.041zm11.379-30.567c-.646 0-1.304.099-1.959.298A7.147 7.147 0 0 0 204.2 9.68c-2.954 6.372-5.325 16.176-4.221 24.225a29.563 29.563 0 0 1 13.268-.343c-2.002-7.285.984-15.657 2.454-19.102.018-.041.039-.082.062-.122l-.004-.002c1.393-2.935.487-6.324-2.109-7.884a5.993 5.993 0 0 0-3.104-.851z" fill="#111"/><path d="M222.097 38.055c-11.07-6.785-26.348-4.986-35.076 4.673 17.602 3.442 34.844 13.661 45.983 27.623 5.312-11.728.13-25.875-10.907-32.296" fill="#3658c1"/><path d="M233.004 71.351c-.302 0-.591-.137-.782-.376-10.884-13.642-27.854-23.835-45.393-27.265a1 1 0 0 1-.55-1.652c8.991-9.95 24.608-12.038 36.331-4.861 11.762 6.85 16.728 21.592 11.305 33.567a1.001 1.001 0 0 1-.911.587zm-43.995-29.23c16.785 3.72 32.896 13.413 43.706 26.298 3.954-10.758-.721-23.45-11.121-29.5l-.02-.012c-10.216-6.26-24.154-4.78-32.565 3.214z" fill="#111"/><path d="m305.891 121.163-25.741-15.466c-1.55-.932-3.415-1.217-5.264-.819l-24.324 5.35a96.832 96.832 0 0 1 1.262 14.636l22.36-4.912 23.337 14.022c3.401 2.043 8.034.828 10.347-2.711 2.313-3.54 1.423-8.057-1.977-10.1" fill="#3658c1"/><path d="M301.14 135.961a7.99 7.99 0 0 1-4.135-1.129l-22.996-13.818-21.972 4.826a1 1 0 0 1-1.214-.966 96.028 96.028 0 0 0-1.249-14.485 1.001 1.001 0 0 1 .772-1.139l24.324-5.35c2.105-.453 4.232-.121 5.994.938l25.74 15.466a7.663 7.663 0 0 1 3.544 4.903c.514 2.241.072 4.586-1.246 6.602-1.737 2.665-4.663 4.152-7.562 4.152zm-26.956-17.008c.18 0 .358.049.515.143l23.337 14.022c2.942 1.766 6.975.689 8.994-2.401 1.018-1.557 1.362-3.354.971-5.061a5.682 5.682 0 0 0-2.625-3.636l-25.74-15.466c-1.324-.795-2.936-1.045-4.538-.698l-23.399 5.146a98.149 98.149 0 0 1 1.105 12.624l21.166-4.649a.906.906 0 0 1 .214-.024z" fill="#111"/><path d="M133.294 17.457 107.554 1.99c-3.389-2.036-8.015-.833-10.328 2.707s-1.431 8.069 1.958 10.105l23.348 14.029 5.136 21.435a108.04 108.04 0 0 1 14.284-5.294l-5.582-23.323a6.711 6.711 0 0 0-3.076-4.192" fill="#3658c1"/><path d="M127.668 51.267a1 1 0 0 1-.973-.767l-5.038-21.027-22.989-13.814c-1.799-1.081-3.052-2.817-3.527-4.888-.508-2.216-.054-4.629 1.247-6.621 2.597-3.974 7.837-5.328 11.681-3.017L133.81 16.6a7.7 7.7 0 0 1 3.532 4.812l5.583 23.327a1 1 0 0 1-.693 1.193 107.353 107.353 0 0 0-14.152 5.246 1.002 1.002 0 0 1-.412.089zM103.927 1.999c-2.235 0-4.506 1.167-5.864 3.245-1.005 1.539-1.36 3.391-.972 5.08a5.654 5.654 0 0 0 2.608 3.622l23.348 14.029c.23.138.395.363.458.624l4.855 20.265a109.488 109.488 0 0 1 12.399-4.58l-5.361-22.401a5.717 5.717 0 0 0-2.618-3.569L107.039 2.847a6.011 6.011 0 0 0-3.112-.848z" fill="#111"/><path d="M273.039 152.967c-1.321-.794-2.922-1.142-4.578-.931l-20.663 2.637a113.923 113.923 0 0 1-5.605 15.487l22.282-2.838 15.09 27.567a6.62 6.62 0 0 0 2.409 2.51c2.191 1.317 5.11 1.372 7.623-.112 3.647-2.16 5.068-6.718 3.159-10.194l-17.294-31.605a6.68 6.68 0 0 0-2.423-2.521" fill="#3658c1"/><path d="M285.617 199.393a8.04 8.04 0 0 1-4.158-1.138 7.666 7.666 0 0 1-2.771-2.887L263.926 168.4l-21.606 2.753a.999.999 0 0 1-1.04-1.399 113.313 113.313 0 0 0 5.556-15.351 1 1 0 0 1 .836-.721l20.663-2.637c1.833-.23 3.686.145 5.219 1.065a7.708 7.708 0 0 1 2.784 2.896l17.295 31.606c2.158 3.929.576 9.104-3.526 11.535a8.846 8.846 0 0 1-4.49 1.246zm-21.141-33.071c.362 0 .7.197.876.52l15.089 27.567a5.585 5.585 0 0 0 2.047 2.133c1.957 1.176 4.486 1.132 6.6-.116 3.183-1.885 4.436-5.856 2.791-8.852l-17.295-31.607a5.696 5.696 0 0 0-2.06-2.143c-1.149-.691-2.546-.974-3.936-.796l-20.009 2.553a115.201 115.201 0 0 1-4.766 13.364l20.535-2.617c.044-.004.086-.006.128-.006z" fill="#111"/><path d="M92.054 44.221a7.055 7.055 0 0 0-3.422-.991l-37.21-1.144c-4.083-.125-7.752 3.082-8.187 7.173-.288 2.82 1.034 5.314 3.227 6.631a7.02 7.02 0 0 0 3.411.986l32.437.99 7.057 20.471a119.883 119.883 0 0 1 12.09-11.593l-6.533-18.979a6.636 6.636 0 0 0-2.87-3.544" fill="#3658c1"/><path d="M89.367 79.336a.998.998 0 0 1-.945-.675L81.59 58.843l-31.748-.969a8.074 8.074 0 0 1-3.895-1.128c-2.605-1.566-4.025-4.474-3.707-7.59.489-4.593 4.66-8.194 9.212-8.071l37.21 1.145a8.084 8.084 0 0 1 3.906 1.133 7.676 7.676 0 0 1 3.299 4.075l6.534 18.979a.999.999 0 0 1-.306 1.094 119.436 119.436 0 0 0-11.989 11.496.988.988 0 0 1-.739.329zM51.191 43.081c-3.488 0-6.589 2.778-6.962 6.282-.238 2.333.814 4.506 2.748 5.668.863.518 1.876.81 2.927.844l32.437.99c.415.013.779.281.915.674l6.511 18.886a121.284 121.284 0 0 1 10.522-10.007l-6.31-18.329a5.595 5.595 0 0 0-2.439-3.012 6.067 6.067 0 0 0-2.938-.849l-37.21-1.145-.201-.002z" fill="#111"/><path d="M190.891 226.347a110.88 110.88 0 0 1-15.513 7.078l-1.6 16.96c-.148 1.549.194 3.056.981 4.33l16.328 26.64a6.608 6.608 0 0 0 2.246 2.231c2.295 1.379 5.373 1.358 7.928-.31 3.553-2.297 4.758-6.904 2.692-10.282l-15.124-24.68z" fill="#3658c1"/><path d="M196.964 285.57a8.033 8.033 0 0 1-4.147-1.126 7.562 7.562 0 0 1-2.584-2.566l-16.327-26.64c-.904-1.465-1.293-3.177-1.124-4.948l1.6-16.959c.036-.384.29-.713.652-.846a110.184 110.184 0 0 0 15.373-7.014 1 1 0 0 1 1.479.969l-2.032 21.636 14.95 24.396c2.346 3.834 1 9.058-3.001 11.645a8.882 8.882 0 0 1-4.839 1.453zm-20.65-51.425-1.541 16.333c-.127 1.335.162 2.618.836 3.711l16.329 26.643a5.583 5.583 0 0 0 1.908 1.896c2.031 1.221 4.727 1.107 6.867-.29 3.101-2.005 4.168-6.007 2.385-8.923l-15.124-24.68a1.002 1.002 0 0 1-.143-.616l1.888-20.104a111.53 111.53 0 0 1-13.405 6.03z" fill="#111"/><path d="m59.029 147.116-19.705 11.368-29.766-2.293c-4.07-.309-7.856 2.747-8.473 6.808-.443 2.937.883 5.604 3.174 6.98a6.924 6.924 0 0 0 3.067.961l32.13 2.476c1.528.116 3.091-.246 4.48-1.049l15.221-8.775a99.795 99.795 0 0 1-.128-16.476" fill="#3658c1"/><path d="M40.023 174.438c-.214 0-.429-.008-.643-.024l-32.131-2.476a7.886 7.886 0 0 1-3.505-1.101c-2.702-1.624-4.134-4.759-3.648-7.987.694-4.569 4.964-8.009 9.538-7.657l29.459 2.269 19.437-11.213a1 1 0 0 1 1.496.94 99.383 99.383 0 0 0 .125 16.312.998.998 0 0 1-.496.957l-15.221 8.775a8.781 8.781 0 0 1-4.411 1.205zM8.989 157.17c-3.354 0-6.4 2.589-6.916 5.98-.371 2.46.664 4.749 2.701 5.973.788.473 1.671.75 2.626.821l32.132 2.476c1.343.101 2.689-.216 3.902-.917l14.67-8.458a101.06 101.06 0 0 1-.193-14.129l-18.086 10.435a.995.995 0 0 1-.576.131l-29.767-2.293a6.304 6.304 0 0 0-.493-.019z" fill="#111"/><path d="M212.567 52.643c-8.007-4.811-16.621-8.084-25.546-9.915-14.634-3.002-30.098-2.119-45.069 2.244a107.989 107.989 0 0 0-14.284 5.294 113.456 113.456 0 0 0-13.653 7.347c6.966 17.338 28.496 39.203 58.079 56.978s59.491 26.817 78.786 25.258a102.86 102.86 0 0 0 .943-14.987 96.82 96.82 0 0 0-1.262-14.636c-2.435-14.824-8.355-28.557-17.558-39.877a78.036 78.036 0 0 0-20.436-17.706" fill="#b0c3ff"/><path d="M246.408 141.024c-20.034 0-48.132-9.534-74.828-25.575-28.788-17.297-51.201-39.315-58.492-57.462a1 1 0 0 1 .395-1.219 114.716 114.716 0 0 1 13.773-7.413 109.292 109.292 0 0 1 14.417-5.343c15.29-4.457 31.042-5.241 45.55-2.264 9.224 1.892 17.924 5.269 25.86 10.038A79.064 79.064 0 0 1 233.78 69.72c9.134 11.236 15.279 25.187 17.769 40.346a98.081 98.081 0 0 1 1.275 14.788c.054 5-.266 10.091-.953 15.132a1 1 0 0 1-.91.862 56.764 56.764 0 0 1-4.553.176zM115.262 58.015c7.458 17.615 29.326 38.884 57.348 55.721 28.063 16.862 57.594 26.461 77.386 25.177.6-4.682.878-9.4.828-14.038a96.028 96.028 0 0 0-1.249-14.485c-2.434-14.815-8.432-28.442-17.347-39.408A77.087 77.087 0 0 0 212.052 53.5c-7.741-4.651-16.23-7.946-25.232-9.792-14.19-2.91-29.608-2.141-44.588 2.225a107.353 107.353 0 0 0-14.152 5.246 112.487 112.487 0 0 0-12.818 6.836z" fill="#111"/><path d="M250.881 139.851c-19.295 1.559-49.202-7.483-78.786-25.258l-74.066 113.37c23.115 13.889 51.311 14.978 77.349 5.462a110.776 110.776 0 0 0 15.513-7.078c16.26-8.976 30.973-22.297 42.112-39.346a120.292 120.292 0 0 0 9.191-16.84 113.874 113.874 0 0 0 5.605-15.487 108.673 108.673 0 0 0 3.082-14.823" fill="#b0c3ff"/><path d="M141.298 240.613c-15.686 0-30.755-3.964-43.785-11.793a1.003 1.003 0 0 1-.322-1.405l74.066-113.371a.998.998 0 0 1 1.353-.31c28.445 17.092 58.411 26.719 78.19 25.119a1 1 0 0 1 1.072 1.131 109.746 109.746 0 0 1-3.111 14.96 115.414 115.414 0 0 1-5.654 15.623 121.4 121.4 0 0 1-9.268 16.979c-10.851 16.609-25.535 30.329-42.465 39.675a112.26 112.26 0 0 1-15.653 7.142c-11.433 4.179-23.09 6.25-34.423 6.25zm-41.86-12.978c21.784 12.694 49.271 14.472 75.597 4.851a110.184 110.184 0 0 0 15.373-7.014c16.646-9.189 31.085-22.681 41.758-39.018a119.617 119.617 0 0 0 9.115-16.699 113.313 113.313 0 0 0 5.556-15.351 108.182 108.182 0 0 0 2.882-13.47c-19.979 1.133-49.358-8.352-77.312-24.989z" fill="#111"/><path d="M114.015 57.614a117.564 117.564 0 0 0-12.558 9.13 119.99 119.99 0 0 0-12.09 11.593A122.224 122.224 0 0 0 77.574 93.61c-11.139 17.049-17.218 35.559-18.545 53.507a100.028 100.028 0 0 0 .127 16.477c2.434 26.622 15.757 50.481 38.873 64.37l74.066-113.37c-29.584-17.777-51.114-39.642-58.08-56.98" fill="#b0c3ff"/><path d="M98.028 228.963a.994.994 0 0 1-.514-.143c-22.459-13.495-36.803-37.236-39.354-65.136a101.17 101.17 0 0 1-.128-16.641c1.383-18.7 7.851-37.366 18.705-53.98a123.684 123.684 0 0 1 11.89-15.398 121.37 121.37 0 0 1 12.191-11.689 118.935 118.935 0 0 1 12.665-9.207.998.998 0 0 1 1.461.473c7.137 17.763 29.234 39.41 57.667 56.494a.997.997 0 0 1 .322 1.404L98.866 228.51a.998.998 0 0 1-.838.453zM113.55 59.097a117.145 117.145 0 0 0-11.453 8.416 119.34 119.34 0 0 0-11.99 11.496 121.456 121.456 0 0 0-11.696 15.148c-10.669 16.332-17.027 34.67-18.385 53.034a99.271 99.271 0 0 0 .126 16.312c2.46 26.915 16.135 49.857 37.57 63.103l72.969-111.692c-27.778-16.862-49.481-38.077-57.141-55.817z" fill="#111"/></svg></g><g transform="translate(301.2 594.0) rotate(0.0 270.0 150.0) scale(1.3495883755454585 1.3492727419920663)"><svg width="400.122" height="222.342" viewBox="0 0 400.122 222.342"><path d="m335.97 66-15.862 33.197-68.729-12.607 15.861-33.197z" fill="#3658c1"/><path d="M320.109 100.197c-.06 0-.12-.005-.181-.016l-68.73-12.607a1 1 0 0 1-.722-1.415l15.861-33.197a1 1 0 0 1 1.083-.552l68.73 12.607a1 1 0 0 1 .722 1.415L321.01 99.629a.999.999 0 0 1-.901.568zm-67.265-14.355 66.692 12.233 14.968-31.328-66.692-12.233z" fill="#111"/><path d="m255.74 45.702-8.46-14.534c-1.592-2.736-1.83-5.519-.749-7.781L230.67 56.584c-1.081 2.263-.843 5.046.749 7.781l8.459 14.534c2.213 3.802 6.718 6.822 11.5 7.691l15.861-33.198c-4.781-.868-9.286-3.888-11.499-7.69z" fill="#3658c1"/><path d="M251.379 87.59a.993.993 0 0 1-.179-.016c-5.047-.917-9.83-4.125-12.186-8.172l-8.459-14.534c-1.754-3.012-2.033-6.108-.787-8.716l15.858-33.189a1 1 0 1 1 1.808.854l-.003.006c-.948 1.991-.695 4.42.714 6.841l8.46 14.534c2.073 3.563 6.318 6.393 10.814 7.21a1 1 0 0 1 .724 1.415l-15.861 33.198a1.002 1.002 0 0 1-.903.569zm-6.234-58.982-13.573 28.407c-.952 1.992-.699 4.424.711 6.847l8.459 14.534c1.959 3.366 5.856 6.078 10.071 7.056l14.98-31.355c-4.568-1.184-8.761-4.186-10.918-7.893l-8.46-14.534a11.823 11.823 0 0 1-1.27-3.062z" fill="#111"/><path d="m396.619 69.558-73.856 61.031-15.861 33.198 73.856-61.031a6.778 6.778 0 0 0 1.839-2.324l15.861-33.198a6.769 6.769 0 0 1-1.839 2.324z" fill="#3658c1"/><path d="M306.901 164.786a1 1 0 0 1-.902-1.431l15.861-33.198a1.01 1.01 0 0 1 .265-.34l73.856-61.031.003-.003a5.757 5.757 0 0 0 1.567-1.975l.003-.007a1 1 0 0 1 1.804.862l-.002.004-15.859 33.193a7.765 7.765 0 0 1-2.107 2.666l-73.854 61.028a.97.97 0 0 1-.635.232zm16.669-33.567-13.813 28.91 70.364-58.145a5.766 5.766 0 0 0 1.573-1.985l13.273-27.78z" fill="#111"/><path d="M252.576 19.142c1.624-.316 3.442-.312 5.343.043l122.629 22.762c4.772.89 9.277 3.91 11.469 7.677l5.708 9.807c2.203 3.785 1.773 7.766-1.107 10.126l-73.856 61.031c-1.12.93-2.575 1.589-4.207 1.907-2.089.407-4.429.269-6.78-.381-4.279-1.184-8.029-3.936-10.015-7.347l-8.46-14.534c-2.213-3.802-1.773-7.765 1.116-10.148L335.97 66l-68.73-12.607c-4.782-.869-9.287-3.889-11.5-7.691l-8.46-14.534c-1.986-3.411-1.865-6.897.293-9.355 1.211-1.361 2.953-2.272 5.003-2.671z" fill="#b0c3ff"/><path d="M316.095 133.725c-1.483 0-3.033-.216-4.586-.646-4.529-1.254-8.496-4.172-10.612-7.808l-8.46-14.534c-2.464-4.233-1.936-8.717 1.344-11.423l39.886-32.72-66.607-12.217c-5.045-.917-9.828-4.125-12.184-8.172l-8.46-14.534c-2.204-3.786-2.052-7.718.406-10.517 1.344-1.512 3.267-2.546 5.563-2.993 1.785-.348 3.709-.334 5.718.042l122.628 22.762c5.045.941 9.814 4.143 12.151 8.157l5.708 9.808c2.467 4.238 1.942 8.714-1.337 11.403L323.4 131.36c-1.246 1.035-2.856 1.768-4.653 2.118-.849.165-1.738.247-2.652.247zM252.768 20.123c-1.862.363-3.399 1.177-4.446 2.354-1.859 2.117-1.927 5.18-.177 8.187l8.46 14.534c2.074 3.563 6.319 6.393 10.814 7.21l68.732 12.607a1 1 0 0 1 .454 1.757l-41.552 34.086c-2.521 2.079-2.861 5.479-.886 8.872l8.46 14.534c1.86 3.195 5.38 5.769 9.417 6.886 2.213.612 4.399.738 6.322.363 1.469-.286 2.769-.872 3.759-1.695l73.858-61.032c2.482-2.035 2.826-5.509.879-8.852l-5.708-9.808c-2.057-3.533-6.291-6.358-10.789-7.197L257.737 20.168c-1.737-.325-3.454-.34-4.969-.045zm-.192-.981h.01z" fill="#111"/><path d="M318.556 132.496c-2.089.407-4.429.269-6.779-.381-4.279-1.184-8.029-3.935-10.015-7.347l-8.46-14.534c-1.591-2.734-1.811-5.551-.734-7.804l-15.862 33.198c-1.076 2.253-.857 5.07.734 7.804l8.46 14.534c1.986 3.411 5.736 6.163 10.015 7.347 2.35.65 4.69.787 6.779.381 1.632-.318 3.087-.977 4.207-1.907l15.861-33.198c-1.12.93-2.575 1.589-4.206 1.907z" fill="#3658c1"/><path d="M300.234 166.922a17.25 17.25 0 0 1-4.586-.646c-4.529-1.254-8.496-4.172-10.612-7.808l-8.46-14.534c-1.727-2.967-2.008-6.152-.772-8.739l15.862-33.198a1 1 0 0 1 1.804.862l-.001.002c-.945 1.98-.691 4.483.697 6.867l8.46 14.534c1.859 3.194 5.379 5.769 9.417 6.886 2.213.612 4.399.738 6.322.363 1.469-.287 2.77-.873 3.76-1.695a1 1 0 0 1 1.541 1.2l-15.862 33.198a.998.998 0 0 1-.263.338c-1.247 1.036-2.857 1.769-4.655 2.12-.849.168-1.738.25-2.652.25zm-9.056-59.264-13.57 28.4c-.946 1.98-.692 4.484.696 6.87l8.46 14.534c1.86 3.194 5.38 5.769 9.417 6.886 2.212.612 4.397.737 6.322.363 1.389-.271 2.626-.81 3.594-1.562l14.41-30.159c-.56.204-1.149.367-1.76.487-2.225.434-4.727.296-7.237-.398-4.53-1.254-8.497-4.173-10.612-7.808l-8.46-14.534a11.548 11.548 0 0 1-1.26-3.079zm27.378 24.838h.01z" fill="#111"/><path d="M167.809 13.313c-.394-1.771-.216-3.414.451-4.809l-15.861 33.198c-.667 1.396-.845 3.038-.451 4.809l36.303 163.885 15.861-33.197z" fill="#3658c1"/><path d="M188.251 211.396a1.001 1.001 0 0 1-.977-.783L150.971 46.727c-.433-1.945-.251-3.832.525-5.457l15.862-33.198a1 1 0 0 1 1.804.862c-.582 1.217-.712 2.656-.377 4.161v.001l36.303 163.886c.048.218.022.446-.074.647l-15.862 33.197a.999.999 0 0 1-.901.57zM166.875 13.721 153.3 42.133c-.581 1.217-.712 2.656-.377 4.161l35.676 161.053 14.462-30.267z" fill="#111"/><path d="M190.042 1.229c3.502-.682 7.704.181 11.232 2.283 3.558 2.116 6.078 5.265 6.78 8.452l36.044 163.935c.968 4.441-1.647 8.056-6.523 9.005l-15.462 3.011c-3.482.678-7.674-.167-11.222-2.265-3.538-2.12-6.058-5.269-6.78-8.452L167.809 13.314c-.987-4.437 1.617-8.069 6.493-9.019z" fill="#b0c3ff"/><path d="M219.657 189.144c-3.069 0-6.382-.922-9.274-2.633-3.758-2.252-6.465-5.649-7.247-9.091L166.832 13.53c-.519-2.333-.165-4.526 1.023-6.341 1.286-1.964 3.508-3.34 6.255-3.875L189.85.248c3.727-.727 8.189.173 11.935 2.405 3.776 2.246 6.484 5.646 7.245 9.096l36.044 163.936c.509 2.334.148 4.522-1.042 6.33-1.29 1.961-3.515 3.335-6.267 3.871l-15.462 3.011c-.847.166-1.736.247-2.646.247zM192.516 1.998c-.786 0-1.552.07-2.283.212l-15.74 3.066c-2.245.438-3.962 1.478-4.964 3.008-.886 1.353-1.143 3.017-.744 4.812l36.303 163.886c.662 2.915 3.024 5.836 6.318 7.81 3.335 1.973 7.267 2.774 10.517 2.142l15.462-3.011c2.251-.438 3.972-1.478 4.978-3.007.887-1.349 1.15-3.01.759-4.803L207.078 12.179c-.644-2.92-3.005-5.838-6.315-7.807-2.587-1.542-5.535-2.374-8.247-2.374zm-2.474-.769h.01z" fill="#111"/><path d="m237.575 184.904-15.462 3.012c-3.482.678-7.674-.167-11.221-2.265-3.538-2.12-6.058-5.269-6.781-8.451l-15.861 33.197c.722 3.182 3.243 6.332 6.781 8.451 3.548 2.099 7.739 2.944 11.221 2.265l15.462-3.011c2.939-.572 5.057-2.113 6.063-4.22l15.861-33.197c-1.006 2.106-3.123 3.647-6.063 4.219z" fill="#3658c1"/><path d="M203.794 222.341c-3.069 0-6.381-.922-9.273-2.633-3.758-2.251-6.465-5.648-7.247-9.091a1.002 1.002 0 0 1 .073-.653l15.861-33.197a1.001 1.001 0 0 1 1.877.209c.663 2.92 3.026 5.842 6.32 7.815 3.335 1.972 7.267 2.773 10.516 2.141l15.462-3.012c2.557-.498 4.457-1.799 5.35-3.665l.002-.005a1 1 0 0 1 1.804.862l-.004.01-15.857 33.188c-1.172 2.454-3.578 4.148-6.774 4.771l-15.462 3.011c-.849.168-1.737.249-2.648.249zm-14.487-11.838c.76 2.81 3.067 5.587 6.238 7.486 3.334 1.973 7.266 2.774 10.516 2.142l15.462-3.011c2.559-.499 4.46-1.802 5.352-3.67l13.58-28.423c-.814.38-1.715.669-2.689.858l-15.462 3.012c-3.715.724-8.172-.168-11.922-2.386-2.886-1.729-5.153-4.135-6.403-6.717z" fill="#111"/><path d="m121.538 81.771-41.532 34.082-15.862 33.197 41.532-34.082a6.828 6.828 0 0 0 1.866-2.351l15.862-33.198a6.834 6.834 0 0 1-1.866 2.352z" fill="#3658c1"/><path d="M64.144 150.05a1 1 0 0 1-.903-1.431l15.862-33.198c.063-.132.155-.249.268-.342l41.532-34.082.002-.002a5.803 5.803 0 0 0 1.595-2.007 1 1 0 0 1 1.804.862l-.005.011-15.856 33.186a7.815 7.815 0 0 1-2.136 2.695l-41.53 34.081a.993.993 0 0 1-.633.227zm16.668-33.565-13.828 28.942 38.058-31.231a5.838 5.838 0 0 0 1.598-2.01l13.28-27.793z" fill="#111"/><path d="m169.453 158.445-15.861 33.197a6.74 6.74 0 0 1-1.071 1.599c-1.172 1.336-2.911 2.268-5.001 2.675-1.632.318-3.48.302-5.325-.051l15.861-33.197c1.845.353 3.693.368 5.325.051 2.089-.407 3.829-1.339 5.001-2.675a6.74 6.74 0 0 0 1.071-1.599" fill="#3658c1"/><path d="M145.07 197.143c-1.002 0-2.033-.099-3.063-.296a1 1 0 0 1-.715-1.413l15.861-33.197c.196-.41.645-.636 1.09-.551 1.72.329 3.43.347 4.946.052 1.875-.365 3.41-1.179 4.44-2.353a5.79 5.79 0 0 0 .92-1.371 1 1 0 0 1 1.804.862l-.004.008-15.858 33.189a7.754 7.754 0 0 1-1.228 1.834c-1.318 1.503-3.241 2.539-5.555 2.99-.838.164-1.726.246-2.638.246zm-1.388-2.07c1.273.129 2.514.083 3.646-.138 1.875-.365 3.41-1.179 4.44-2.353.38-.424.687-.883.92-1.37l13.555-28.37c-.812.382-1.708.671-2.671.859-1.535.299-3.228.324-4.938.078z" fill="#111"/><path d="m158.057 162.668-15.862 33.197-122.629-22.762 15.862-33.197z" fill="#3658c1"/><path d="M142.196 196.865a.945.945 0 0 1-.183-.017L19.384 174.086a1.001 1.001 0 0 1-.719-1.415l15.862-33.197c.195-.408.64-.634 1.085-.552l122.629 22.762a1.001 1.001 0 0 1 .719 1.415l-15.861 33.197c-.17.352-.524.569-.903.569zM21.031 172.358l120.593 22.384 14.969-31.329-120.594-22.384z" fill="#111"/><path d="m23.958 132.229-5.708-9.807c-1.582-2.717-1.799-5.546-.72-7.804L1.669 147.815c-1.079 2.258-.862 5.086.72 7.804l5.708 9.807c2.203 3.785 6.708 6.805 11.469 7.678l15.861-33.198c-4.761-.873-9.266-3.893-11.469-7.677z" fill="#3658c1"/><path d="M19.567 174.103c-.06 0-.12-.005-.181-.016-5.036-.923-9.806-4.125-12.154-8.158l-5.708-9.806c-1.721-2.958-1.998-6.143-.758-8.739l15.858-33.191.003-.007a1 1 0 0 1 1.804.862c-.951 1.989-.702 4.493.682 6.87l5.708 9.808c2.067 3.55 6.3 6.375 10.785 7.196a1 1 0 0 1 .722 1.415l-15.861 33.198a.996.996 0 0 1-.9.568zm-3.434-54.243L2.571 148.246c-.95 1.989-.702 4.493.682 6.87l5.708 9.806c1.951 3.354 5.836 6.06 10.041 7.042l14.981-31.356c-4.556-1.187-8.739-4.183-10.889-7.877l-5.708-9.808a11.44 11.44 0 0 1-1.253-3.063z" fill="#111"/><path d="M97.414 49.362c2.045-.398 4.378-.281 6.766.38 4.309 1.198 8.049 3.932 10.034 7.343l8.46 14.534c2.213 3.802 1.763 7.787-1.136 10.152l-41.532 34.082 68.71 12.611c4.792.887 9.306 3.885 11.52 7.687l8.46 14.534c1.986 3.411 1.876 6.914-.313 9.358-1.172 1.336-2.911 2.268-5.001 2.675-1.632.318-3.48.302-5.325-.051L35.428 139.906c-4.762-.872-9.267-3.892-11.469-7.677l-5.708-9.807c-2.193-3.767-1.762-7.748 1.107-10.126l73.856-61.031c1.141-.949 2.58-1.588 4.2-1.903z" fill="#b0c3ff"/><path d="M160.932 163.946c-1.002 0-2.033-.099-3.063-.296L35.245 140.889c-5.033-.922-9.804-4.124-12.151-8.157l-5.708-9.808c-2.455-4.218-1.932-8.693 1.333-11.399l73.857-61.032c1.261-1.047 2.825-1.758 4.647-2.113 2.222-.433 4.72-.295 7.223.397 4.55 1.266 8.524 4.183 10.632 7.804l8.46 14.534c2.473 4.248 1.936 8.734-1.368 11.43l-39.863 32.713 66.59 12.222c5.072.939 9.862 4.145 12.203 8.168l8.46 14.534c2.219 3.812 2.057 7.748-.432 10.529-1.318 1.502-3.241 2.539-5.555 2.989-.841.164-1.729.246-2.641.246zM97.605 50.343c-1.489.29-2.752.859-3.754 1.69l-73.858 61.032c-2.471 2.049-2.817 5.524-.88 8.853l5.708 9.807c2.066 3.55 6.3 6.374 10.785 7.196l122.631 22.763c1.725.329 3.435.347 4.951.052 1.875-.365 3.41-1.179 4.44-2.353 1.889-2.11 1.961-5.171.2-8.196l-8.46-14.534c-2.061-3.541-6.315-6.37-10.837-7.207l-68.709-12.611a1 1 0 0 1-.454-1.756L120.9 80.997c2.502-2.041 2.857-5.524.906-8.876l-8.46-14.534c-1.852-3.181-5.38-5.754-9.438-6.883-2.201-.609-4.382-.735-6.303-.361z" fill="#111"/></svg></g></svg>