<svg xmlns="http://www.w3.org/2000/svg" viewBox="0 0 449.03 380.06"><defs><style>.cls-1,.cls-2,.cls-4{fill:none;stroke-miterlimit:10;}.cls-1{stroke:#e6e6e6;}.cls-2{stroke:#999;}.cls-3{fill:#0070f0;}.cls-4{stroke:#000;}</style></defs><title> plane</title><g id="Layer_2" data-name="Layer 2"><g id="Layer_1-2" data-name="Layer 1"><path class="cls-1" d="M185,31.5l62,47v57s7,11,15-14l5-20,79,56,102-131Z"/><path class="cls-1" d="M250.5,138s25.67-5.62,42.33-17.31"/><polyline class="cls-1" points="247.5 78 448.5 26 268.5 101"/><path class="cls-2" d="M208.5,113s-63,27-91,68-19,74-19,74,4,32,49,27c27.12-3-21.54-58.23-91.91-41.92C23.06,248.15,1.54,270.55,1.5,293c0,19.26,16,38.19,30,41,20,4,35-39,1-16C10.4,333,2.67,362.38.5,380"/><polygon class="cls-3" points="280.5 17 286.5 92 398.5 47 394.5 0 280.5 17"/><polyline class="cls-4" points="286.5 22 353.5 46 387.5 9"/><line class="cls-4" x1="289.5" y1="84" x2="337" y2="40.09"/><line class="cls-4" x1="361.12" y1="37.7" x2="379.5" y2="45"/></g></g></svg>